# xmcd
#
# Track frame offsets:
#   150
#   13653
#   29786
#   48765
#   63781
#   77879
#   93948
#   105940
#   122139
#   139629
#   154625
#   180882
#
# Disc length: 4440 seconds
#
# Revision: 0
# Processed by: cddbd v1.4PL0 Copyright (c) Steve Scherf et al.
# Submitted via: Precision_Digital_Audio_Extractor 1.50.0
#
DISCID=8811560c
DTITLE=Yasar - Sevdigim Sarkilar
DYEAR=2003
DGENRE=Blues
TTITLE0=Her Yerde Kar Var
TTITLE1=Bos Sokak
TTITLE2=Kadinim
TTITLE3=Benim Butun Ruyalarim Seninle
TTITLE4=Vakit Yok, Gemi Kalkiyor
TTITLE5=Bir Gunah gibi
TTITLE6=Senden, Benden, Bizden
TTITLE7=Hatiralar Hayal Oldu
TTITLE8=Sessiz Gemi
TTITLE9=Bos Sokak (Breezin)
TTITLE10=Benim Butun Ruyalarim Seninle (Breezin)
TTITLE11=Program
EXTD=
EXTT0=
EXTT1=
EXTT2=
EXTT3=
EXTT4=
EXTT5=
EXTT6=
EXTT7=
EXTT8=
EXTT9=
EXTT10=
EXTT11=
PLAYORDER=
